<svg xmlns="http://www.w3.org/2000/svg" xmlns:xlink="http://www.w3.org/1999/xlink" version="1.1" x="0px" y="0px" viewBox="0 0 100 125" enable-background="new 0 0 100 100" xml:space="preserve"><path d="M81.75,48.1017952c0.6630859,0,1.2001953-0.5375977,1.2001953-1.2001953S82.4130859,45.7014046,81.75,45.7014046h-4.5513916  c0.2562866-1.220459,0.3970947-2.4723511,0.3970947-3.7509766c0-0.2633667-0.0250854-0.5236206-0.0362549-0.7856445  l3.6798096-0.9746094c0.640625-0.1699219,1.0224609-0.8266602,0.8525391-1.4672852  c-0.1699219-0.6396484-0.8203125-1.0209961-1.4677734-0.8530273l-3.3162842,0.8783569  c-0.3775635-2.1350708-1.1400757-4.1987915-2.2539673-6.1483154l1.8192749-19.9517212  c0.0898438-0.9916992-0.3896484-1.9375-1.2529297-2.46875c-0.90625-0.5585938-2.0273438-0.5693359-2.9570313-0.0400391  l-12.6685181,5.5938721C56.9398804,14.4846697,53.5460815,13.7800188,50,13.7800188  c-3.5460205,0-6.9398193,0.7047119-9.9945679,1.9532471l-12.6694946-5.5943604  c-0.9199219-0.5205078-2.0644531-0.5078125-2.9550781,0.0400391c-0.862793,0.53125-1.3432617,1.4775391-1.2524414,2.4692383  l1.8178101,19.9517822c-1.1137695,1.949585-1.8762817,4.0132446-2.2539063,6.1482544l-3.3163452-0.8783569  c-0.6391602-0.1694336-1.2978516,0.2119141-1.4672852,0.8530273c-0.1694336,0.640625,0.2124023,1.2973633,0.8530273,1.4672852  l3.678894,0.9744263c-0.0111694,0.262085-0.0363159,0.5223999-0.0363159,0.7858276  c0,1.2786255,0.1408081,2.5305176,0.3970947,3.7509766H18.25c-0.6625977,0-1.2001953,0.5375977-1.2001953,1.2001953  S17.5874023,48.1017952,18.25,48.1017952h5.2276611c0.460022,1.2966309,1.0586548,2.5455933,1.7874146,3.7345581  l-6.7079468,1.7766724c-0.640625,0.1699219-1.0224609,0.8271484-0.8530273,1.4677734  c0.1425781,0.5371094,0.6279297,0.8925781,1.1591797,0.8925781c0.1020508,0,0.2050781-0.0126953,0.3081055-0.0400391  l7.5592041-2.0023804c1.5825195,2.0054932,3.5447998,3.7959595,5.8119507,5.2984619  c-0.2789307,0.215332-0.5502319,0.4425049-0.8226318,0.6677856c-1.3398438,1.1077271-2.604187,2.3271484-3.772522,3.657959  c-5.6638184,6.4514198-9.1729736,15.3637733-9.1729736,25.1936073c0,0.828125,0.6713867,1.5,1.5,1.5  c0.8285522,0,1.4998779-0.671814,1.5-1.4998779c0-0.000061,0-0.000061,0-0.0001221  c0-8.8069458,3.0409546-16.8043823,7.9666748-22.6793823c2.6668091,2.8215332,7.1361084,4.9852295,12.5991821,6.0415039  c-1.0158691,2.8681641-0.3875732,6.1939087,1.9033813,8.4845581C45.7807617,82.1335373,47.8251953,82.980217,50,82.980217  s4.21875-0.8466797,5.7568359-2.3847656c2.2913818-2.2906494,2.9197388-5.6165771,1.9036255-8.4847412  c5.4625854-1.0563965,9.9315796-3.2199707,12.5983887-6.0413818c4.9257813,5.875061,7.9667358,13.8724976,7.9667358,22.6794434  c0,0.000061,0,0.000061,0,0.0001221c0.0001221,0.828064,0.671936,1.4998779,1.5,1.4998779c0.828125,0,1.5-0.671875,1.5-1.5  c0-9.829834-3.5090942-18.7421875-9.1729736-25.1936684c-1.1682739-1.3307495-2.4326782-2.5501709-3.772522-3.6578979  c-0.2723999-0.2252808-0.5436401-0.4523315-0.8225098-0.6677246c2.2672119-1.5025635,4.2294312-3.2930298,5.8120117-5.2985229  l7.5595093,2.0023804c0.1035156,0.0273438,0.2070313,0.0400391,0.3085938,0.0400391  c0.53125,0,1.0166016-0.3554688,1.1591797-0.8925781c0.1699219-0.640625-0.2119141-1.2978516-0.8525391-1.4677734  l-6.7091064-1.7769775c0.7286377-1.1889038,1.3272095-2.4376831,1.7871704-3.7342529H81.75z M63.25,48.1017952h10.0614014  c-0.4356689,1.0169678-0.9725952,1.9973755-1.6079102,2.9312744l-7.9407959-2.1031494  c-0.6425781-0.1689453-1.2978516,0.2128906-1.4677734,0.8530273c-0.1699219,0.640625,0.2119141,1.2978516,0.8525391,1.4667969  l6.9370117,1.8375244c-1.4747314,1.6377563-3.2609253,3.0900879-5.296814,4.2977905  c-0.4926147,0.2922363-1.0022583,0.5670166-1.522644,0.8300781c-0.5529175,0.27948-1.1187134,0.5442505-1.7006226,0.7889404  C58.1148071,60.4546394,54.1783447,61.2800179,50,61.2800179c-4.1782227,0-8.1146851-0.8253784-11.56427-2.276001  c-0.5818481-0.2446289-1.147583-0.5093994-1.7003784-0.7888184c-0.5205078-0.2630615-1.0301514-0.5379639-1.5228882-0.8302612  c-2.0358276-1.2077026-3.8221436-2.6599731-5.296814-4.2976685l6.9368896-1.8375244  c0.640625-0.1689453,1.0224609-0.8261719,0.8530273-1.4667969c-0.1699219-0.6411133-0.8286133-1.0224609-1.4672852-0.8530273  l-7.9415283,2.1033936c-0.635437-0.93396-1.1723633-1.9144287-1.6080933-2.9315186H36.75  c0.6625977,0,1.2001953-0.5375977,1.2001953-1.2001953S37.4125977,45.7014046,36.75,45.7014046H25.8730469  c-0.3050537-1.2140503-0.46875-2.4675903-0.46875-3.7509766c0-0.0003052,0.000061-0.0005493,0.000061-0.0008545  l11.0385132,2.9237061c0.1030273,0.0273438,0.2060547,0.0400391,0.3081055,0.0400391  c0.5307617,0,1.0166016-0.3554688,1.1591797-0.8930664c0.1694336-0.640625-0.2124023-1.2973633-0.8530273-1.4672852  l-11.4434204-3.0309448c0.0357056-0.222229,0.0680542-0.4446411,0.1134644-0.6652832  c0.220459-1.0706177,0.5632935-2.1189575,1.0091553-3.1413574c0.4171143-0.9567261,0.9321899-1.8869019,1.5405884-2.7863159  c0.4522095-0.668457,0.9404907-1.3245239,1.4955444-1.9542236l0.2451172-0.277832l0.0869141-0.3603516  c1.1905518-4.9087524,4.9044189-8.9762573,9.8712158-11.3370972c0.6195068-0.2944946,1.2644043-0.5523071,1.9203491-0.7919922  c0.7102661-0.2595215,1.4411621-0.4820557,2.1881714-0.6732788C45.9680786,17.0521736,47.9522095,16.7800179,50,16.7800179  s4.0319214,0.2720947,5.9157715,0.7542725c0.7470703,0.1912231,1.4780884,0.4138794,2.1883545,0.6734009  c0.6560059,0.2397461,1.3008423,0.4976807,1.9203491,0.7921753c4.9661865,2.3609009,8.6795044,6.4282227,9.8700562,11.336792  l0.0878906,0.3603516l0.2451172,0.277832c0.5549316,0.6296997,1.0431519,1.2857056,1.4953003,1.9541016  c0.6087036,0.8998413,1.1239014,1.8305054,1.5411987,2.7877197c0.4454956,1.0219727,0.788208,2.0698242,1.008667,3.1398926  c0.0454712,0.2206421,0.0778198,0.4431763,0.1135254,0.6654053l-11.4438477,3.0310059  c-0.640625,0.1699219-1.0224609,0.8266602-0.8525391,1.4672852c0.1425781,0.5380859,0.6279297,0.8930664,1.1591797,0.8930664  c0.1015625,0,0.2050781-0.0126953,0.3085938-0.0400391l11.0380249-2.9235229c0,0.0002441,0.000061,0.0004272,0.000061,0.0006714  c0,1.2833862-0.1636353,2.5369263-0.468689,3.7509766H63.25c-0.6630859,0-1.2001953,0.5375977-1.2001953,1.2001953  S62.5869141,48.1017952,63.25,48.1017952z M27.5719604,28.3577156l-1.4083862-15.4570913l10.3729858,4.5803213  C32.2637329,20.075367,29.0306396,23.8729134,27.5719604,28.3577156z M72.4283447,28.360157  c-1.458313-4.4857178-4.6914673-8.2840576-8.9647217-10.8789063l10.373291-4.5806265L72.4283447,28.360157z M53.6357422,78.4743576  C52.9044189,79.2049484,51.9919434,79.6877975,51,79.8824387v-3.0217285  c0.4276123-0.3104858,0.7085571-0.8109131,0.7085571-1.3797607c0-0.9434814-0.7648315-1.708374-1.708313-1.708374  s-1.708313,0.7648926-1.708313,1.708374c0,0.5686646,0.2807617,1.0688477,0.7080688,1.3793335v3.0221558  c-0.9919434-0.1946411-1.9042969-0.6774902-2.6352539-1.4080811c-1.5949707-1.5953369-1.8989258-3.9781494-0.9555664-5.8986206  c0.2421875-0.492981,0.5461426-0.9633179,0.9555664-1.3728638C47.3359375,70.2321701,48.6269531,69.6970139,50,69.6970139  s2.6640625,0.5351563,3.6357422,1.5058594c0.4094849,0.4094849,0.713501,0.8797607,0.9557495,1.3727417  C55.5351563,74.4960861,55.2311401,76.8789597,53.6357422,78.4743576z M53.7869263,67.62957  C52.6328125,67.0214767,51.3417969,66.6970139,50,66.6970139s-2.6329346,0.3244019-3.7869263,0.9324951  c-6.102356-0.6341553-10.8612671-2.7419434-12.9716797-5.1091957c0.6847534-0.5859375,1.3914795-1.1395264,2.121521-1.6533203  C39.6090088,63.0259285,44.6256104,64.2800217,50,64.2800217c5.3745117,0,10.3910522-1.2540321,14.637146-3.4129677  c0.7301025,0.5137939,1.4367676,1.0673828,2.121521,1.6533203C64.6482544,64.8876266,59.8895264,66.9954147,53.7869263,67.62957z   M55.4472656,51.2692757c-0.2080078,0.4277344-0.6357422,0.6767578-1.0810547,0.6767578  c-0.1757813,0-0.3535156-0.0390625-0.5224609-0.1201172L50,49.962635l-3.84375,1.8632813  c-0.5966797,0.2871094-1.3144531,0.0390625-1.6035156-0.5566406c-0.2890625-0.5966797-0.0395508-1.3144531,0.5566406-1.6035156  l3.6904297-1.7886963V44.825428c-0.166687-0.1263428-0.322937-0.2714233-0.4500732-0.4572144l-1.5114746-2.2086792  c-0.9083862-1.3273315,0.0421143-3.1295166,1.6505127-3.1295166h3.0229492c1.6083984,0,2.5588989,1.8021851,1.6505127,3.1295166  l-1.5114746,2.2086792c-0.1272583,0.1859741-0.2836914,0.3311157-0.4505615,0.4574585v3.0513916L54.890625,49.66576  C55.4873047,49.9548225,55.7363281,50.672596,55.4472656,51.2692757z M61.9377441,32.1452522  c0,1.3461914-1.0913086,2.4375-2.4375,2.4375s-2.4375-1.0913086-2.4375-2.4375s1.0913086-2.4375,2.4375-2.4375  S61.9377441,30.7990608,61.9377441,32.1452522z M42.9377441,32.1452522c0,1.3461914-1.0913086,2.4375-2.4375,2.4375  s-2.4375-1.0913086-2.4375-2.4375s1.0913086-2.4375,2.4375-2.4375S42.9377441,30.7990608,42.9377441,32.1452522z"/><text x="0" y="115" fill="#000000" font-size="5px" font-weight="bold" font-family="'Helvetica Neue', Helvetica, Arial-Unicode, Arial, Sans-serif">Created by Llisole</text><text x="0" y="120" fill="#000000" font-size="5px" font-weight="bold" font-family="'Helvetica Neue', Helvetica, Arial-Unicode, Arial, Sans-serif">from the Noun Project</text></svg>